<?xml version="1.0" standalone="no"?>
<!DOCTYPE svg PUBLIC "-//W3C//DTD SVG 20010904//EN"
 "http://www.w3.org/TR/2001/REC-SVG-20010904/DTD/svg10.dtd">
<svg version="1.0" xmlns="http://www.w3.org/2000/svg"
 width="275.000000pt" height="183.000000pt" viewBox="0 0 275.000000 183.000000"
 preserveAspectRatio="xMidYMid meet">
<metadata>
Created by potrace 1.16, written by Peter Selinger 2001-2019
</metadata>
<g transform="translate(0.000000,183.000000) scale(0.100000,-0.100000)"
fill="#000000" stroke="none">
<path d="M0 915 l0 -915 1375 0 1375 0 0 915 0 915 -1375 0 -1375 0 0 -915z
m2503 493 c4 -10 8 -10 15 1 13 18 46 6 38 -14 -3 -10 1 -15 13 -15 24 0 36
-29 16 -37 -14 -5 -13 -7 1 -18 20 -14 11 -35 -16 -35 -13 0 -17 -5 -14 -15 8
-20 -22 -31 -41 -15 -10 9 -15 9 -15 1 0 -6 -9 -11 -20 -11 -13 0 -20 7 -20
20 0 11 -6 20 -14 20 -20 0 -31 19 -17 33 7 7 7 14 0 23 -12 15 -4 34 15 34 8
0 16 9 19 20 6 22 32 27 40 8z m-986 -298 c19 0 73 -39 73 -52 0 -3 -9 -8 -20
-11 -32 -8 -23 -24 13 -22 49 3 87 -28 87 -73 0 -35 1 -36 15 -15 32 46 78 30
78 -28 0 -39 -24 -62 -62 -61 -24 0 -34 -5 -46 -27 -8 -16 -28 -40 -45 -55
-29 -24 -31 -30 -28 -82 l3 -56 70 -22 c99 -31 203 -85 247 -127 44 -42 106
-169 137 -280 12 -41 21 -81 21 -87 0 -9 -62 -12 -240 -12 -207 0 -240 2 -240
15 0 13 -20 15 -124 15 l-124 0 -10 28 c-6 15 -11 21 -11 14 -1 -7 6 -26 14
-42 l16 -30 -293 0 c-161 0 -298 4 -304 8 -6 4 -42 94 -79 201 -52 146 -66
198 -58 210 9 14 47 17 294 21 247 4 289 7 324 23 22 10 74 29 117 43 l76 24
4 50 c3 48 1 52 -34 80 -20 17 -42 45 -49 64 -11 29 -15 33 -31 25 -19 -10
-56 3 -70 25 -14 20 -8 63 10 80 18 15 21 15 44 -4 l26 -20 4 75 c2 41 9 80
15 86 16 16 81 28 123 23 19 -2 45 -4 57 -4z m-912 -835 l0 -45 -155 -1 c-85
0 -166 -2 -180 -3 -42 -5 -50 3 -50 50 l0 44 193 0 192 0 0 -45z m1753 -15
l27 0 -5 -70 c-6 -80 -14 -90 -76 -90 -56 0 -71 20 -76 97 l-3 62 40 4 c22 2
46 2 53 0 8 -2 26 -3 40 -3z m-1708 -100 l0 -50 -190 0 -190 0 0 50 0 50 190
0 190 0 0 -50z"/>
</g>
</svg>
